<?xml version="1.0" encoding="UTF-8"?> <svg xmlns="http://www.w3.org/2000/svg" width="40" height="40" viewBox="0 0 72 72" fill="none"> <circle cx="36" cy="36.1318" r="35.5" transform="rotate(-90 36 36.1318)" fill="url(#paint0_linear_430_459)"></circle> <path d="M35 51.3461C35 51.8984 35.4477 52.3461 36 52.3461C36.5523 52.3461 37 51.8984 37 51.3461L35 51.3461ZM36.7071 20.2104C36.3166 19.8199 35.6834 19.8199 35.2929 20.2104L28.9289 26.5744C28.5384 26.9649 28.5384 27.5981 28.9289 27.9886C29.3195 28.3791 29.9526 28.3791 30.3431 27.9886L36 22.3318L41.6569 27.9886C42.0474 28.3791 42.6805 28.3791 43.0711 27.9886C43.4616 27.5981 43.4616 26.9649 43.0711 26.5744L36.7071 20.2104ZM37 51.3461L37 20.9175L35 20.9175L35 51.3461L37 51.3461Z" fill="#F4F4F4"></path> <defs> <linearGradient id="paint0_linear_430_459" x1="99.6318" y1="52.1318" x2="-68.8682" y2="-166.368" gradientUnits="userSpaceOnUse"> <stop stop-color="#0C7373"></stop> <stop offset="0.483134" stop-color="#203C6E" stop-opacity="0"></stop> </linearGradient> </defs> </svg> 