<svg width="240" height="156" viewBox="0 0 240 156" fill="none" xmlns="http://www.w3.org/2000/svg">
<path d="M100.603 71.2915C105.499 61.8609 103.38 57.6828 98.8748 60.0267C95.973 61.5364 94.1777 64.4941 92.439 67.2648L89.1709 72.4728C87.7437 74.7471 86.502 77.1328 85.4579 79.6065L77.875 97.5721L74.7651 107.76L66.2609 128.728C65.5347 130.519 64.6797 132.254 63.7026 133.921L60.0419 140.167C58.4485 142.885 56.3559 145.278 53.8741 147.22L52.9794 147.92C51.9154 148.752 50.7505 149.447 49.5124 149.988V149.988C47.5458 150.846 45.427 151.302 43.2812 151.328L41.8663 151.345C39.848 151.37 37.8478 150.962 36 150.15L35.5393 149.948C33.6362 149.111 31.9779 147.803 30.7215 146.147L30.2613 145.54C29.3893 144.39 28.8041 143.049 28.5544 141.628V141.628C27.9994 138.47 28.578 135.217 30.188 132.443L30.2392 132.355C31.1236 130.831 32.2898 129.49 33.6757 128.403L41.4407 122.309L73.5039 100.971C75.1462 99.878 76.7055 98.665 78.1689 97.3419L118.562 60.8214C118.811 60.5964 119.038 60.3489 119.242 60.0821L124.152 53.6417C125.119 52.3738 125.835 50.933 126.262 49.3966L126.758 47.6083C127.479 45.0157 126.963 42.2359 125.361 40.0738L124.568 39.0027C124.07 38.3303 123.235 37.997 122.411 38.1418V38.1418C121.802 38.2488 121.266 38.6059 120.932 39.1265L119.162 41.8909C118.907 42.2905 118.688 42.7126 118.509 43.1522L99.6873 89.4718L97.9648 95.2498C97.9199 95.4005 97.8573 95.5454 97.7784 95.6815L86.9801 114.308L94.4036 97.8407C94.4588 97.7182 94.5262 97.6017 94.6048 97.4928L103.848 84.6764C104.046 84.4015 104.277 84.1521 104.536 83.9338L107.288 81.6161C107.869 81.1265 108.754 81.2944 109.115 81.9628V81.9628C109.266 82.2425 109.3 82.5707 109.209 82.8754L106.22 92.9039C106.138 93.1767 106.486 93.368 106.673 93.1532L116.215 82.1857C116.244 82.1514 116.277 82.1199 116.313 82.0916L116.423 82.0036C116.913 81.6124 117.63 82.021 117.543 82.6423V82.6423C117.363 83.9267 118.887 84.7339 119.849 83.8642L121.788 82.1112L128.02 74.7133C128.132 74.581 128.179 74.406 128.149 74.2355L127.937 73.031C127.914 72.8966 127.829 72.7808 127.708 72.7176V72.7176C126.413 72.0406 124.867 72.0513 123.581 72.7463L122.782 73.1783C121.816 73.7006 121.009 74.4739 120.446 75.4165L119.955 76.2378C119.698 76.6679 119.816 77.2232 120.225 77.5122L121.663 78.5275C121.758 78.5943 121.87 78.6308 121.986 78.6322L124.325 78.6589C125.623 78.6737 126.563 79.9019 126.238 81.1588L126.136 81.554C125.905 82.4506 126.911 83.1532 127.673 82.6268L130.681 80.5486" stroke="#C5C5C5" stroke-width="2" stroke-linecap="round"/>
<path d="M132.779 71.8024L132.472 71.4318C131.622 70.4092 131.055 69.1826 130.825 67.8733V67.8733C130.496 66.0017 130.876 64.0747 131.892 62.4687L134.416 58.477C134.977 57.5902 135.658 56.7855 136.44 56.0857L139.189 53.6246C139.826 53.0544 140.793 53.0657 141.417 53.6505V53.6505C141.795 54.0055 142.319 54.1616 142.83 54.0718L143.51 53.9524C143.941 53.8766 144.351 53.708 144.711 53.4582L147.678 51.4007C147.777 51.3323 147.889 51.2861 148.008 51.2653V51.2653C148.623 51.1572 149.132 51.7416 148.941 52.3362L148.389 54.0586C148.356 54.1595 148.316 54.2575 148.267 54.3516L137.042 76.1399C136.901 76.4126 137.004 76.7476 137.273 76.8949V76.8949C137.502 77.0204 137.787 76.9725 137.963 76.7792L153.9 59.2388C154.406 58.6819 155.277 59.35 154.87 59.9829L153.531 62.0645C153.109 62.7214 152.742 63.412 152.433 64.1295L150.83 67.8589C150.787 67.9575 150.775 68.0663 150.793 68.1719V68.1719C150.871 68.6153 151.419 68.7833 151.732 68.4598L169.012 50.6013C169.031 50.5826 169.051 50.5661 169.073 50.5524V50.5524C169.317 50.4015 169.619 50.6266 169.545 50.9033L169.083 52.6203L168.808 53.9366C168.764 54.1463 168.795 54.3647 168.897 54.5532V54.5532C169.083 54.8961 169.467 55.0819 169.851 55.0145L170.254 54.9436C170.474 54.905 170.682 54.8172 170.862 54.6868L174.731 51.8936C175.034 51.6742 175.209 51.3158 175.197 50.9411V50.9411C175.187 50.6248 175.043 50.3257 174.802 50.1212V50.1212C174.467 49.8385 173.999 49.7767 173.603 49.9633L172.647 50.4134L171.559 50.9598C170.355 51.5644 169.244 52.3589 168.281 53.3007V53.3007C167.553 54.0124 166.906 54.8131 166.364 55.6754L164.19 59.1382C163.888 59.6189 163.775 60.1945 163.874 60.7536L163.922 61.0272C164.031 61.6504 164.46 62.1704 165.05 62.3971V62.3971C165.524 62.5788 166.051 62.5526 166.504 62.3252L168.698 61.2234L173.814 57.9536L178.298 55.5851L188.743 50.1587C188.828 50.1144 188.92 50.0833 189.015 50.0666L189.469 49.9868C189.732 49.9406 189.982 50.1162 190.028 50.3789V50.3789C190.044 50.4688 190.034 50.5613 189.999 50.6458L188.724 53.7531L188.094 55.1034C187.99 55.3251 188.041 55.5882 188.22 55.7555V55.7555C188.383 55.9087 188.621 55.9512 188.827 55.8638L189.932 55.3959C190.241 55.2649 190.519 55.0708 190.749 54.8259L192.987 52.4402C193.746 51.6305 194.428 50.7517 195.025 49.8154L195.09 49.7138C196.026 48.2448 196.757 46.6551 197.263 44.9885L198.889 39.6379L200.005 33.4184C200.429 31.0549 200.434 28.6351 200.018 26.27L199.814 25.1098C199.457 23.0759 198.679 21.1389 197.532 19.4223V19.4223C196.556 17.9632 195.329 16.6885 193.909 15.6575L192.37 14.5405C191.206 13.6959 189.973 12.9512 188.684 12.3144L188.521 12.2336C186.467 11.2193 184.296 10.464 182.056 9.98503L181.789 9.92797C179.624 9.46485 177.413 9.24424 175.199 9.27022L173.659 9.28829C171.128 9.31799 168.604 9.56795 166.116 10.0353L156.849 11.7763L145.564 15.0235L115.412 28.3756C113.03 29.4302 110.735 30.6692 108.546 32.0815L93.9564 41.4961C91.9643 42.7816 90.0662 44.2072 88.2764 45.762L68.6118 62.8447L53.8601 78.7473C53.4175 79.2244 52.99 79.7032 52.57 80.2003C50.2004 83.0055 41.6742 93.2371 36.8752 100.824C32.7903 107.283 31.0345 111.225 27.5 118C25.0015 122.789 21.5837 129.738 20.1621 132.644C19.7209 133.545 19.4138 134.502 19.2439 135.492L18.7594 138.314C18.4793 139.945 19.008 141.611 20.1776 142.783V142.783C20.7178 143.324 21.3727 143.736 22.094 143.99L22.5146 144.138C23.2948 144.413 24.1173 144.548 24.9444 144.538L29.8013 144.48C30.8729 144.467 31.9327 144.254 32.9264 143.853L37.7359 141.91C39.5263 141.187 41.256 140.321 42.9084 139.322L43.314 139.077C46.0472 137.424 48.5836 135.466 50.8742 133.24L54.1777 130.029L62.3911 120.999L72.2828 110.726L79.5306 102.497L87.427 95.2615L92.8602 91.3961C95.1351 89.7777 97.5416 88.3526 100.054 87.1359L106.695 83.9206C109.649 82.4903 112.74 81.3639 115.922 80.5587L116.469 80.4202C118.36 79.9416 120.283 79.5999 122.223 79.3977L125.613 79.0443C127.3 78.8685 129.003 78.94 130.67 79.2566V79.2566C133.003 79.7001 135.222 80.6164 137.188 81.949L137.652 82.2634C139.172 83.2931 140.498 84.5825 141.57 86.0724L142.322 87.1185C142.69 87.6299 142.983 88.1911 143.193 88.7852V88.7852C143.604 89.9509 143.681 91.2083 143.415 92.4155L142.591 96.1591V96.1591C142.532 96.3569 142.793 96.4875 142.916 96.3219L149.195 87.8798C149.282 87.7635 149.38 87.6568 149.489 87.5614L151.605 85.71C153.095 84.4066 154.72 83.2669 156.454 82.3106L157.878 81.5247C158.551 81.1534 159.259 80.8505 159.993 80.6207L161.624 80.1096C162.093 79.9626 162.588 79.9164 163.076 79.9741L163.371 80.0088C163.751 80.0537 164.114 80.1922 164.427 80.412V80.412C164.929 80.7641 165.271 81.3014 165.377 81.9055L165.402 82.0443C165.436 82.2421 165.449 82.4432 165.438 82.6437L165.413 83.115C165.368 83.9746 165.159 84.8177 164.799 85.5995L164.315 86.6518L163.567 88.4983C163.331 89.0816 163.051 89.6465 162.73 90.188L162.075 91.294C161.859 91.6589 161.7 92.0545 161.603 92.4673L161.279 93.843C161.233 94.0414 161.267 94.2501 161.374 94.4233V94.4233C161.54 94.6904 161.851 94.8299 162.16 94.7755L163.048 94.6195C163.436 94.5514 163.796 94.3758 164.089 94.1126L164.733 93.5331L166.475 92.34C167.382 91.7191 168.237 91.026 169.032 90.2675V90.2675C169.858 89.4787 170.75 88.7607 171.697 88.1211L173.817 86.6886C175.879 85.2955 178.043 84.0583 180.289 82.9873L182.165 82.0928L186.351 80.7251L189.947 79.8512C190.677 79.6739 191.432 79.6233 192.179 79.7015L192.97 79.7844C193.191 79.8076 193.407 79.8685 193.608 79.9646L193.786 80.0497C194.242 80.2679 194.564 80.6931 194.652 81.1911V81.1911C194.718 81.5688 194.644 81.9578 194.442 82.2842L193.771 83.373L189.94 89.0136C189.753 89.2901 189.76 89.6552 189.959 89.9238V89.9238C190.136 90.1632 190.434 90.2819 190.727 90.2303L191.692 90.0608C191.854 90.0324 192.012 89.9873 192.164 89.9262L194.741 88.8929L199.531 86.4705L202.589 84.9848L206.315 83.6979L211.141 82.3758L216.787 81.2256L224.941 79.9511L227.935 79.8992L228.046 79.9033C229.441 79.9552 230.81 80.2989 232.064 80.9123V80.9123L233.272 81.4904" stroke="#D9D9D9" stroke-width="2" stroke-linecap="round"/>
</svg>
