<?xml version="1.0" encoding="UTF-8"?> <svg xmlns="http://www.w3.org/2000/svg" width="200" height="200" viewBox="0 0 200 200" fill="none"> <circle cx="100" cy="100" r="100" fill="#181818" fill-opacity="0.1"></circle> <path d="M100 40C85.1513 40 70.8975 46.1145 60.4062 56.9877C49.9042 67.8652 44.0029 82.6171 44 98C44 113.376 51.9999 132 51.9967 144C66 150 67.1481 148 81.9969 148C96.8456 148 129.103 149.886 139.594 139.012C150.094 128.139 156 113.376 156 98C156 82.6237 150.094 67.8608 139.594 56.9877C129.103 46.1145 114.849 40 100 40Z" fill="url(#paint0_linear_369_838)"></path> <path d="M64.9724 99.3242C83.6324 91.1962 96.0724 85.8372 102.292 83.2482C120.072 75.8552 123.762 74.5712 126.172 74.5277C126.702 74.5192 127.882 74.6502 128.652 75.2727C129.292 75.7977 129.472 76.5077 129.562 77.0062C129.642 77.5042 129.752 78.6392 129.662 79.5252C128.702 89.6452 124.532 114.203 122.412 125.538C121.522 130.334 119.752 131.942 118.042 132.099C114.322 132.441 111.502 129.643 107.902 127.284C102.272 123.591 99.0924 121.293 93.6224 117.69C87.3024 113.526 91.4024 111.237 95.0024 107.497C95.9424 106.518 112.322 91.6232 112.632 90.2722C112.672 90.1032 112.712 89.4732 112.332 89.1412C111.962 88.8082 111.412 88.9222 111.012 89.0122C110.442 89.1402 101.452 95.0882 84.0124 106.855C81.4624 108.609 79.1524 109.464 77.0724 109.419C74.7924 109.37 70.3924 108.127 67.1224 107.065C63.1224 105.762 59.9324 105.073 60.2124 102.86C60.3524 101.708 61.9424 100.529 64.9724 99.3242Z" fill="white"></path> <path d="M40.5014 99.2633C40.4982 109.708 43.2476 119.905 48.4747 128.893L40 159.603L71.6659 151.363C80.3908 156.084 90.2143 158.573 100.21 158.577H100.236C133.156 158.577 159.955 131.987 159.97 99.3107C159.975 83.4744 153.767 68.5828 142.49 57.3805C131.211 46.1795 116.215 40.0065 100.236 40C67.3099 40 40.5146 66.586 40.5014 99.2633ZM59.3591 127.345L58.1768 125.482C53.2065 117.639 50.5831 108.574 50.5868 99.267C50.5976 72.1065 72.8688 50.0093 100.255 50.0093C113.517 50.0149 125.981 55.146 135.355 64.4558C144.729 73.7665 149.887 86.1433 149.884 99.307C149.872 126.467 127.6 148.567 100.236 148.567H100.216C91.3062 148.563 82.5676 146.188 74.9468 141.7L73.1332 140.633L54.342 145.522L59.3591 127.345V127.345Z" fill="url(#paint1_linear_369_838)"></path> <defs> <linearGradient id="paint0_linear_369_838" x1="5644" y1="40" x2="5644" y2="11640" gradientUnits="userSpaceOnUse"> <stop stop-color="#2AABEE"></stop> <stop offset="1" stop-color="#229ED9"></stop> </linearGradient> <linearGradient id="paint1_linear_369_838" x1="6038.48" y1="12000.3" x2="6038.48" y2="40" gradientUnits="userSpaceOnUse"> <stop stop-color="#F9F9F9"></stop> <stop offset="1" stop-color="white"></stop> </linearGradient> </defs> </svg> 