<?xml version="1.0" encoding="UTF-8"?> <svg xmlns="http://www.w3.org/2000/svg" width="200" height="200" viewBox="0 0 200 200" fill="none"> <circle cx="100" cy="100" r="100" fill="#181818" fill-opacity="0.1"></circle> <path d="M100 40C85.1513 40 70.8975 46.0964 60.4062 56.9375C49.9042 67.7828 44.0029 82.4912 44 97.8287C44 113.16 51.9999 131.728 51.9967 143.693C66 149.675 79.1513 152 94 152C108.849 152 129.103 149.561 139.594 138.72C150.094 127.879 156 113.16 156 97.8287C156 82.4977 150.094 67.7785 139.594 56.9375C129.103 46.0964 114.849 40 100 40Z" fill="url(#paint0_linear_369_844)"></path> <path d="M40.5014 99.2633C40.4982 109.708 43.2476 119.905 48.4747 128.893L40 159.603L71.6659 151.363C80.3908 156.084 90.2143 158.573 100.21 158.577H100.236C133.156 158.577 159.955 131.987 159.97 99.3107C159.975 83.4744 153.767 68.5828 142.49 57.3805C131.211 46.1795 116.215 40.0065 100.236 40C67.3099 40 40.5146 66.586 40.5014 99.2633ZM59.3591 127.345L58.1768 125.482C53.2065 117.639 50.5831 108.574 50.5868 99.267C50.5976 72.1065 72.8688 50.0093 100.255 50.0093C113.517 50.0149 125.981 55.146 135.355 64.4558C144.729 73.7665 149.887 86.1433 149.884 99.307C149.872 126.467 127.6 148.567 100.236 148.567H100.216C91.3062 148.563 82.5676 146.188 74.9468 141.7L73.1332 140.633L54.342 145.522L59.3591 127.345V127.345Z" fill="url(#paint1_linear_369_844)"></path> <path d="M121.862 94.3045C121.934 85.0541 114.548 76.5725 105.398 75.4007L104.798 75.3077C104.339 75.2135 103.873 75.1596 103.406 75.1465C101.528 75.1465 101.03 76.5477 100.898 77.3847C100.823 77.7323 100.816 78.0919 100.878 78.4422C100.94 78.7926 101.069 79.1266 101.258 79.4245C101.882 80.3235 102.974 80.4785 103.85 80.6149C104.108 80.6521 104.354 80.6831 104.552 80.7389C112.778 82.6919 115.55 85.7733 116.9 94.4719C116.936 94.6889 116.948 94.9493 116.96 95.2283C117.02 96.2637 117.146 98.4275 119.33 98.4275C119.51 98.4275 119.702 98.4151 119.906 98.3779C121.94 98.0493 121.874 96.0715 121.844 95.1229C121.828 94.8938 121.828 94.6638 121.844 94.4347C121.85 94.3937 121.854 94.3522 121.856 94.3107L121.862 94.3045Z" fill="white"></path> <path d="M102.874 72.0023C103.114 72.0209 103.354 72.0395 103.54 72.0705C117.04 74.2901 123.256 81.1101 124.978 95.6305C125.008 95.8785 125.008 96.1761 125.014 96.4985C125.032 97.6331 125.068 99.9891 127.444 100.039H127.516C127.843 100.057 128.169 100.002 128.473 99.8793C128.777 99.7564 129.053 99.5676 129.28 99.3257C130.018 98.5011 129.97 97.2797 129.928 96.2877C129.916 96.0521 129.904 95.8227 129.91 95.6243C130.078 80.7753 118.03 67.3089 104.122 66.8129L103.954 66.8191C103.901 66.8273 103.847 66.8314 103.792 66.8315C103.654 66.8315 103.48 66.8191 103.3 66.8067C103.061 66.7841 102.821 66.7717 102.58 66.7695C100.366 66.7695 99.9464 68.4435 99.8924 69.4479C99.7724 71.7605 101.866 71.9279 102.874 72.0023ZM124.324 114.392C124.035 114.158 123.749 113.92 123.466 113.679C121.99 112.414 120.418 111.248 118.906 110.12C118.59 109.885 118.274 109.649 117.958 109.413C116.014 107.962 114.268 107.249 112.618 107.249C110.398 107.249 108.46 108.564 106.858 111.149C106.15 112.29 105.286 112.848 104.23 112.848C103.493 112.821 102.77 112.628 102.112 112.284C95.8424 109.246 91.3604 104.596 88.7984 98.4577C87.5624 95.4817 87.9584 93.5473 90.1424 91.9663C91.3784 91.0735 93.6824 89.4057 93.5204 86.2127C93.3404 82.5857 85.8344 71.6737 82.6724 70.4337C81.3236 69.9077 79.8362 69.9033 78.4844 70.4213C74.8544 71.7233 72.2444 74.0173 70.9424 77.0367C69.6824 79.9631 69.7424 83.3917 71.1104 86.9629C75.0524 97.2921 80.5904 106.295 87.5864 113.722C94.4264 120.995 102.838 126.947 112.582 131.423C113.458 131.826 114.382 132.043 115.054 132.204L115.624 132.353C115.702 132.376 115.783 132.389 115.864 132.39H115.942C120.526 132.39 126.028 127.926 127.72 122.83C129.202 118.366 126.496 116.165 124.324 114.398V114.392ZM104.902 83.8009C104.122 83.8195 102.484 83.8629 101.908 85.6361C101.644 86.4669 101.674 87.1861 102.004 87.7751C102.49 88.6431 103.426 88.9097 104.272 89.0523C107.344 89.5793 108.928 91.3959 109.24 94.7563C109.39 96.3311 110.38 97.4223 111.652 97.4223C111.749 97.4244 111.845 97.4203 111.94 97.4099C113.47 97.2115 114.208 96.0149 114.142 93.8449C114.166 91.5757 113.056 89.0089 111.166 86.9629C109.27 84.9045 106.984 83.7451 104.902 83.8009Z" fill="white"></path> <defs> <linearGradient id="paint0_linear_369_844" x1="5644" y1="40" x2="5644" y2="11605.7" gradientUnits="userSpaceOnUse"> <stop stop-color="#982AEE"></stop> <stop offset="1" stop-color="#229ED9"></stop> </linearGradient> <linearGradient id="paint1_linear_369_844" x1="6038.48" y1="12000.3" x2="6038.48" y2="40" gradientUnits="userSpaceOnUse"> <stop stop-color="#F9F9F9"></stop> <stop offset="1" stop-color="white"></stop> </linearGradient> </defs> </svg> 