<?xml version="1.0" encoding="UTF-8"?> <svg xmlns="http://www.w3.org/2000/svg" width="200" height="200" viewBox="0 0 200 200" fill="none"> <circle cx="100" cy="100" r="100" fill="#181818" fill-opacity="0.1"></circle> <path d="M42.5764 99.2815C42.5736 109.364 45.228 119.208 50.2751 127.886L42.0938 157.533L72.6635 149.578C81.1187 154.146 90.5921 156.54 100.219 156.541H100.244C132.025 156.541 157.894 130.874 157.908 99.3266C157.914 84.0396 151.921 69.6647 141.033 58.8498C130.147 48.0359 115.668 42.0773 100.242 42.0703C68.458 42.0703 42.59 67.7354 42.5769 99.2815" fill="url(#paint0_linear_369_832)"></path> <path d="M40.5171 99.2633C40.5138 109.708 43.2632 119.905 48.4903 128.893L40.0156 159.603L71.6815 151.363C80.4065 156.084 90.2299 158.573 100.226 158.577H100.252C133.172 158.577 159.971 131.987 159.985 99.3107C159.991 83.4744 153.782 68.5828 142.505 57.3805C131.227 46.1795 116.23 40.0065 100.252 40C67.3256 40 40.5302 66.586 40.5171 99.2633ZM59.3748 127.345L58.1924 125.482C53.2221 117.639 50.5987 108.574 50.6025 99.267C50.6132 72.1065 72.8845 50.0093 100.27 50.0093C113.533 50.0149 125.996 55.146 135.371 64.4558C144.745 73.7665 149.903 86.1433 149.9 99.307C149.888 126.467 127.616 148.567 100.252 148.567H100.232C91.3218 148.563 82.5833 146.188 74.9624 141.7L73.1488 140.633L54.3576 145.522L59.3748 127.345V127.345Z" fill="url(#paint1_linear_369_832)"></path> <path d="M85.3211 74.4866C84.2029 72.0201 83.0262 71.9703 81.9629 71.927C81.0922 71.8898 80.0968 71.8926 79.1023 71.8926C78.107 71.8926 76.4897 72.2643 75.1227 73.7456C73.7543 75.2284 69.8984 78.8117 69.8984 86.0996C69.8984 93.388 75.2469 100.431 75.9925 101.421C76.739 102.408 86.3179 117.842 101.488 123.78C114.096 128.714 116.662 127.733 119.399 127.486C122.135 127.239 128.229 123.903 129.473 120.444C130.717 116.986 130.717 114.021 130.344 113.401C129.971 112.784 128.975 112.414 127.483 111.673C125.99 110.932 118.652 107.348 117.284 106.854C115.916 106.36 114.921 106.114 113.925 107.597C112.93 109.078 110.072 112.414 109.201 113.401C108.33 114.392 107.459 114.515 105.967 113.774C104.474 113.031 99.6668 111.468 93.964 106.422C89.527 102.496 86.5316 97.647 85.6608 96.1638C84.7901 94.6829 85.5676 93.8801 86.316 93.1419C86.9866 92.4782 87.809 91.4122 88.556 90.5475C89.3002 89.6824 89.5486 89.0652 90.0463 88.0773C90.5444 87.0884 90.2951 86.2233 89.9226 85.4824C89.5486 84.7415 86.6482 77.4154 85.3211 74.4866Z" fill="white"></path> <defs> <linearGradient id="paint0_linear_369_832" x1="5832.8" y1="11588.4" x2="5832.8" y2="42.0703" gradientUnits="userSpaceOnUse"> <stop stop-color="#1FAF38"></stop> <stop offset="1" stop-color="#60D669"></stop> </linearGradient> <linearGradient id="paint1_linear_369_832" x1="6038.49" y1="12000.3" x2="6038.49" y2="40" gradientUnits="userSpaceOnUse"> <stop stop-color="#F9F9F9"></stop> <stop offset="1" stop-color="white"></stop> </linearGradient> </defs> </svg> 